<svg width="100%" height="100%" id="svg" viewBox="0 0 1440 500" xmlns="http://www.w3.org/2000/svg" class="transition duration-300 ease-in-out delay-150"><path d="M 0,700 C 0,700 0,350 0,350 C 53.73624367986187,320.1283018867924 107.47248735972374,290.2566037735849 154,327 C 200.52751264027626,363.7433962264151 239.84629424096687,467.10188679245283 299,461 C 358.15370575903313,454.89811320754717 437.14233567640895,339.33584905660376 497,281 C 556.857664323591,222.66415094339624 597.5843630533974,221.55471698113206 648,251 C 698.4156369466026,280.44528301886794 758.5202121100014,340.44528301886794 814,364 C 869.4797878899986,387.55471698113206 920.3347885065978,374.66415094339624 972,332 C 1023.6652114934022,289.33584905660376 1076.1406338636082,216.8981132075471 1134,251 C 1191.8593661363918,285.1018867924529 1255.102676038969,425.7433962264151 1307,460 C 1358.897323961031,494.2566037735849 1399.4486619805155,422.1283018867924 1440,350 C 1440,350 1440,700 1440,700 Z" stroke="none" stroke-width="0" fill="#fff43cff" class="transition-all duration-300 ease-in-out delay-150 path-0" transform="rotate(-180 720 350)"></path></svg>